PathFileType	4	(x/y/z)	S01_BK_Cal.trc
DataRate	CameraRate	NumFrames	NumMarkers	Units	OrigDataRate	OrigDataStartFrame	OrigNumFrames
240	240	6	51	mm	240	1501	2400
Frame#	Time	Sternum			R.Acromium			L.Acromium			Top.Head			R.ASIS			L.ASIS			R.PSIS			L.PSIS			R.Great.Tro			L.Great.Tro			R.Iliac.Crest			L.Iliac.Crest			V.Sacral			R.Thigh.Upper.Post			R.Thigh.Lower.Ant			R.Thigh.Lower.Post			R.Thigh.Upper.Ant			R.Knee.Lat			R.Knee.Med			R.Shank.Upper.Post			R.Shank.Lower.Ant			R.Shank.Lower.Post			R.Shank.Upper.Ant			R.Ankle.Lat			R.Ankle.Med			R.Heel.Upper			R.Heel.Med			R.Heel.Lat			R.Toe.Lat			R.Toe.Med			R.Toe.Tip			L.Thigh.Upper.Post			L.Thigh.Lower.Ant			L.Thigh.Lower.Post			L.Thigh.Upper.Ant			L.Knee.Lat			L.Knee.Med			L.Shank.Upper.Post			L.Shank.Lower.Ant			L.Shank.Lower.Post			L.Shank.Upper.Ant			L.Ankle.Lat			L.Ankle.Med			L.Heel.Upper			L.Heel.Med			L.Heel.Lat			L.Toe.Lat			L.Toe.Med			L.Toe.Tip			Cervical.Spine			Back			
		X1	Y1	Z1	X2	Y2	Z2	X3	Y3	Z3	X4	Y4	Z4	X5	Y5	Z5	X6	Y6	Z6	X7	Y7	Z7	X8	Y8	Z8	X9	Y9	Z9	X10	Y10	Z10	X11	Y11	Z11	X12	Y12	Z12	X13	Y13	Z13	X14	Y14	Z14	X15	Y15	Z15	X16	Y16	Z16	X17	Y17	Z17	X18	Y18	Z18	X19	Y19	Z19	X20	Y20	Z20	X21	Y21	Z21	X22	Y22	Z22	X23	Y23	Z23	X24	Y24	Z24	X25	Y25	Z25	X26	Y26	Z26	X27	Y27	Z27	X28	Y28	Z28	X29	Y29	Z29	X30	Y30	Z30	X31	Y31	Z31	X32	Y32	Z32	X33	Y33	Z33	X34	Y34	Z34	X35	Y35	Z35	X36	Y36	Z36	X37	Y37	Z37	X38	Y38	Z38	X39	Y39	Z39	X40	Y40	Z40	X41	Y41	Z41	X42	Y42	Z42	X43	Y43	Z43	X44	Y44	Z44	X45	Y45	Z45	X46	Y46	Z46	X47	Y47	Z47	X48	Y48	Z48	X49	Y49	Z49	X50	Y50	Z50	X51	Y51	Z51	

1501	6.25	717.84	1271.9	275	561.25	1510	456.43	528.91	1520.6	129.79	459.63	1815.4	300.03	691.85	1001.5	429.95	690.9	1002.5	160.61	454.15	1031.5	339.19	451.14	1028.8	235.18	617.97	946.78	510.55	585.86	946.55	82.187	597.82	1096.4	494.44	575.16	1082.2	90.16	442.27	992.64	285.57	651.62	643.29	514.97	730.96	580.13	498.2	666.52	555.41	501.42	719.61	669.65	510.05	697.68	491.55	500.43	706.38	482.95	360.28	595.2	363.97	530.56	617.77	263.33	490.99	564.29	300.15	523.36	646.71	329.85	506.24	481.37	112.45	498.49	511.27	106.05	404.73	405.9	80.242	444.49	416.85	47.837	416.94	413.53	51.799	481.53	601.5	35.006	539.43	633.99	40.131	415.12	696.89	52.126	470.94	597.31	659.31	82.985	688.73	600.78	65.813	620.35	571.24	91.353	656.96	690.91	58.098	678.87	492.92	73.156	717.2	489.28	208.64	591.96	383.22	49.84	619.51	277.17	69.472	566.94	309.4	49.74	645.68	349.41	63.189	472.82	112.59	79.018	503.75	117.5	173.8	399.57	82	123.72	408.85	53.267	155.12	407.33	57.141	93.292	610.28	37.976	45.133	634.59	45.773	167.46	697.13	56.218	117.65	458.08	1550.2	301.37	417.41	1228.5	313.79
1502	6.2542	717.86	1271.9	275	561.26	1510	456.42	528.91	1520.6	129.78	459.66	1815.4	300.01	691.84	1001.5	429.95	690.9	1002.5	160.61	454.14	1031.5	339.18	451.13	1028.8	235.17	617.96	946.78	510.54	585.86	946.55	82.186	597.81	1096.4	494.43	575.16	1082.2	90.162	442.26	992.64	285.56	651.62	643.3	514.97	730.95	580.13	498.2	666.52	555.41	501.42	719.61	669.66	510.05	697.68	491.56	500.43	706.37	482.96	360.28	595.2	363.97	530.56	617.77	263.33	490.99	564.29	300.15	523.36	646.71	329.86	506.24	481.37	112.45	498.49	511.27	106.05	404.73	405.9	80.243	444.48	416.85	47.838	416.94	413.53	51.8	481.53	601.5	35.006	539.43	633.99	40.131	415.12	696.89	52.126	470.94	597.3	659.31	82.983	688.73	600.78	65.814	620.34	571.24	91.354	656.96	690.91	58.097	678.87	492.92	73.158	717.2	489.28	208.64	591.96	383.22	49.84	619.51	277.17	69.472	566.94	309.4	49.739	645.68	349.41	63.189	472.82	112.59	79.018	503.75	117.5	173.8	399.57	82	123.72	408.85	53.268	155.12	407.33	57.142	93.291	610.28	37.977	45.133	634.59	45.775	167.46	697.13	56.219	117.65	458.08	1550.2	301.36	417.43	1228.5	313.78
1503	6.2583	717.88	1272	275	561.26	1510.1	456.42	528.92	1520.6	129.77	459.68	1815.4	299.99	691.83	1001.5	429.95	690.9	1002.5	160.62	454.13	1031.5	339.18	451.12	1028.8	235.17	617.95	946.79	510.53	585.86	946.55	82.185	597.8	1096.4	494.43	575.16	1082.2	90.164	442.25	992.64	285.56	651.61	643.3	514.96	730.95	580.14	498.2	666.51	555.41	501.42	719.6	669.66	510.05	697.68	491.56	500.43	706.37	482.96	360.27	595.19	363.97	530.56	617.77	263.34	490.99	564.29	300.15	523.36	646.71	329.86	506.24	481.37	112.45	498.49	511.27	106.05	404.73	405.9	80.243	444.48	416.85	47.839	416.94	413.53	51.801	481.53	601.5	35.006	539.43	633.99	40.131	415.12	696.89	52.126	470.94	597.3	659.31	82.981	688.73	600.78	65.814	620.34	571.24	91.354	656.96	690.91	58.096	678.87	492.92	73.159	717.2	489.28	208.64	591.96	383.22	49.839	619.51	277.17	69.472	566.94	309.4	49.738	645.68	349.41	63.189	472.82	112.59	79.018	503.75	117.5	173.8	399.57	82.001	123.72	408.85	53.268	155.12	407.33	57.142	93.291	610.28	37.977	45.133	634.59	45.778	167.46	697.13	56.219	117.65	458.08	1550.2	301.35	417.44	1228.5	313.78
1504	6.2625	717.89	1272	275	561.27	1510.1	456.41	528.92	1520.6	129.77	459.71	1815.4	299.97	691.83	1001.5	429.95	690.9	1002.5	160.62	454.12	1031.5	339.17	451.11	1028.8	235.16	617.94	946.79	510.53	585.85	946.56	82.183	597.79	1096.4	494.43	575.16	1082.2	90.166	442.24	992.64	285.55	651.61	643.3	514.96	730.95	580.14	498.2	666.51	555.41	501.42	719.59	669.66	510.05	697.68	491.56	500.43	706.37	482.96	360.27	595.19	363.98	530.56	617.77	263.34	490.99	564.29	300.15	523.36	646.71	329.86	506.24	481.37	112.45	498.49	511.27	106.05	404.73	405.9	80.244	444.48	416.84	47.841	416.94	413.53	51.802	481.53	601.5	35.007	539.43	633.99	40.131	415.12	696.89	52.126	470.94	597.3	659.31	82.979	688.73	600.78	65.814	620.34	571.24	91.355	656.96	690.91	58.095	678.87	492.92	73.16	717.2	489.28	208.64	591.96	383.22	49.839	619.51	277.17	69.472	566.94	309.4	49.737	645.68	349.41	63.189	472.82	112.59	79.019	503.75	117.5	173.8	399.57	82.002	123.72	408.85	53.269	155.12	407.33	57.143	93.29	610.28	37.977	45.134	634.59	45.78	167.46	697.13	56.22	117.65	458.09	1550.2	301.34	417.46	1228.5	313.78
1505	6.2667	717.91	1272	275	561.27	1510.1	456.4	528.92	1520.6	129.76	459.73	1815.4	299.95	691.82	1001.5	429.95	690.89	1002.5	160.62	454.11	1031.5	339.17	451.1	1028.8	235.16	617.93	946.79	510.52	585.85	946.56	82.181	597.78	1096.4	494.42	575.16	1082.2	90.167	442.23	992.64	285.55	651.6	643.3	514.96	730.94	580.14	498.2	666.51	555.41	501.42	719.59	669.66	510.05	697.68	491.56	500.43	706.37	482.96	360.28	595.19	363.98	530.56	617.77	263.34	491	564.29	300.15	523.36	646.71	329.86	506.25	481.37	112.45	498.49	511.27	106.05	404.73	405.9	80.245	444.48	416.84	47.842	416.94	413.53	51.803	481.52	601.5	35.007	539.43	633.99	40.131	415.12	696.89	52.126	470.94	597.3	659.31	82.977	688.73	600.78	65.813	620.34	571.24	91.354	656.96	690.91	58.093	678.87	492.92	73.161	717.2	489.28	208.64	591.96	383.22	49.838	619.51	277.17	69.472	566.94	309.4	49.736	645.68	349.41	63.189	472.82	112.59	79.019	503.75	117.5	173.8	399.57	82.002	123.72	408.85	53.27	155.12	407.33	57.144	93.29	610.28	37.977	45.134	634.59	45.783	167.46	697.13	56.22	117.65	458.09	1550.2	301.33	417.48	1228.5	313.77
1506	6.2708	717.93	1272	275	561.28	1510.1	456.39	528.92	1520.6	129.75	459.76	1815.4	299.94	691.81	1001.5	429.94	690.89	1002.5	160.62	454.1	1031.5	339.16	451.09	1028.8	235.15	617.92	946.79	510.51	585.85	946.56	82.177	597.77	1096.4	494.42	575.16	1082.2	90.167	442.23	992.64	285.54	651.6	643.3	514.96	730.94	580.14	498.2	666.51	555.41	501.42	719.58	669.66	510.05	697.67	491.56	500.43	706.37	482.96	360.28	595.19	363.98	530.56	617.77	263.34	491	564.29	300.15	523.36	646.71	329.86	506.25	481.37	112.45	498.49	511.27	106.05	404.73	405.9	80.247	444.48	416.84	47.843	416.94	413.53	51.804	481.52	601.5	35.008	539.43	633.99	40.132	415.12	696.89	52.127	470.94	597.3	659.31	82.975	688.73	600.78	65.813	620.34	571.24	91.354	656.96	690.91	58.092	678.88	492.92	73.161	717.2	489.28	208.64	591.96	383.23	49.838	619.51	277.17	69.472	566.94	309.4	49.736	645.68	349.41	63.189	472.82	112.6	79.02	503.75	117.5	173.8	399.57	82.003	123.72	408.85	53.271	155.12	407.33	57.145	93.289	610.28	37.978	45.135	634.59	45.786	167.46	697.13	56.221	117.65	458.09	1550.2	301.32	417.49	1228.5	313.77
